<svg xmlns="http://www.w3.org/2000/svg" width="25.013" height="25.013" viewBox="0 0 25.013 25.013">
  <g id="Group_264" data-name="Group 264" transform="translate(-322.775 -21.853)">
    <path id="Path_5" data-name="Path 5" d="M17.774,13.549a6.774,6.774,0,1,1,6.774-6.774A6.782,6.782,0,0,1,17.774,13.549Zm0-12.507a5.732,5.732,0,1,0,5.732,5.732A5.738,5.738,0,0,0,17.774,1.042Z" transform="translate(323.24 21.853)" fill="#e4e4e4"/>
    <path id="Path_6" data-name="Path 6" d="M17.521,10.3A.521.521,0,0,1,17,9.774V3.521a.521.521,0,0,1,1.042,0V9.774A.521.521,0,0,1,17.521,10.3Z" transform="translate(323.493 21.979)" fill="#e4e4e4"/>
    <path id="Path_7" data-name="Path 7" d="M20.774,7.042H14.521a.521.521,0,1,1,0-1.042h6.253a.521.521,0,0,1,0,1.042Z" transform="translate(323.367 22.106)" fill="#e4e4e4"/>
    <path id="Path_8" data-name="Path 8" d="M20.154,17.464H6.606a.521.521,0,0,1-.511-.419L4.01,6.623A.52.52,0,0,1,4.521,6H8.69a.521.521,0,1,1,0,1.042H5.157l1.876,9.38H19.727l.289-1.443a.521.521,0,0,1,1.021.2l-.372,1.862A.521.521,0,0,1,20.154,17.464Z" transform="translate(322.944 22.106)" fill="#e4e4e4"/>
    <path id="Path_9" data-name="Path 9" d="M6.774,17.633a.522.522,0,0,1-.511-.419L3.68,4.3A1.568,1.568,0,0,0,2.147,3.04h0l-1.625,0A.521.521,0,0,1,.521,2L2.145,2h0A2.613,2.613,0,0,1,4.7,4.093L7.285,17.01a.521.521,0,0,1-.409.613A.493.493,0,0,1,6.774,17.633Z" transform="translate(322.775 21.937)" fill="#e4e4e4"/>
    <path id="Path_10" data-name="Path 10" d="M22.281,19.127H4.563a1.563,1.563,0,1,1,0-3.127H6.648a.521.521,0,1,1,0,1.042H4.563a.521.521,0,0,0,0,1.042H22.281a.521.521,0,0,1,0,1.042Z" transform="translate(322.902 22.528)" fill="#e4e4e4"/>
    <path id="Path_11" data-name="Path 11" d="M8.084,24.169a2.084,2.084,0,1,1,2.084-2.084A2.087,2.087,0,0,1,8.084,24.169Zm0-3.127a1.042,1.042,0,1,0,1.042,1.042A1.044,1.044,0,0,0,8.084,21.042Z" transform="translate(323.029 22.697)" fill="#e4e4e4"/>
    <path id="Path_12" data-name="Path 12" d="M17.084,24.169a2.084,2.084,0,1,1,2.084-2.084A2.087,2.087,0,0,1,17.084,24.169Zm0-3.127a1.042,1.042,0,1,0,1.042,1.042A1.044,1.044,0,0,0,17.084,21.042Z" transform="translate(323.409 22.697)" fill="#e4e4e4"/>
    <path id="Path_13" data-name="Path 13" d="M17.774,13.549a6.774,6.774,0,1,1,6.774-6.774A6.782,6.782,0,0,1,17.774,13.549Zm0-12.507a5.732,5.732,0,1,0,5.732,5.732A5.738,5.738,0,0,0,17.774,1.042Z" transform="translate(323.24 21.853)" fill="#e4e4e4"/>
    <path id="Path_14" data-name="Path 14" d="M17.521,10.3A.521.521,0,0,1,17,9.774V3.521a.521.521,0,0,1,1.042,0V9.774A.521.521,0,0,1,17.521,10.3Z" transform="translate(323.493 21.979)" fill="#e4e4e4"/>
    <path id="Path_15" data-name="Path 15" d="M20.774,7.042H14.521a.521.521,0,1,1,0-1.042h6.253a.521.521,0,0,1,0,1.042Z" transform="translate(323.367 22.106)" fill="#e4e4e4"/>
    <path id="Path_16" data-name="Path 16" d="M20.154,17.464H6.606a.521.521,0,0,1-.511-.419L4.01,6.623A.52.52,0,0,1,4.521,6H8.69a.521.521,0,1,1,0,1.042H5.157l1.876,9.38H19.727l.289-1.443a.521.521,0,0,1,1.021.2l-.372,1.862A.521.521,0,0,1,20.154,17.464Z" transform="translate(322.944 22.106)" fill="#e4e4e4"/>
    <path id="Path_17" data-name="Path 17" d="M6.774,17.633a.522.522,0,0,1-.511-.419L3.68,4.3A1.568,1.568,0,0,0,2.147,3.04h0l-1.625,0A.521.521,0,0,1,.521,2L2.145,2h0A2.613,2.613,0,0,1,4.7,4.093L7.285,17.01a.521.521,0,0,1-.409.613A.493.493,0,0,1,6.774,17.633Z" transform="translate(322.775 21.937)" fill="#e4e4e4"/>
    <path id="Path_18" data-name="Path 18" d="M22.281,19.127H4.563a1.563,1.563,0,1,1,0-3.127H6.648a.521.521,0,1,1,0,1.042H4.563a.521.521,0,0,0,0,1.042H22.281a.521.521,0,0,1,0,1.042Z" transform="translate(322.902 22.528)" fill="#e4e4e4"/>
    <path id="Path_19" data-name="Path 19" d="M8.084,24.169a2.084,2.084,0,1,1,2.084-2.084A2.087,2.087,0,0,1,8.084,24.169Zm0-3.127a1.042,1.042,0,1,0,1.042,1.042A1.044,1.044,0,0,0,8.084,21.042Z" transform="translate(323.029 22.697)" fill="#e4e4e4"/>
    <path id="Path_20" data-name="Path 20" d="M17.084,24.169a2.084,2.084,0,1,1,2.084-2.084A2.087,2.087,0,0,1,17.084,24.169Zm0-3.127a1.042,1.042,0,1,0,1.042,1.042A1.044,1.044,0,0,0,17.084,21.042Z" transform="translate(323.409 22.697)" fill="#e4e4e4"/>
  </g>
</svg>
