<svg xmlns="http://www.w3.org/2000/svg" width="28.688" height="12.749" viewBox="0 0 28.688 12.749">
  <g id="long-arrow-pointing-to-the-right" transform="translate(0 -137.052)">
    <path id="Path_1" data-name="Path 1" d="M28.522,143l-6.375-5.811a.533.533,0,0,0-.581-.083.482.482,0,0,0-.316.482V141.3H.531a.511.511,0,0,0-.531.531v3.188a.511.511,0,0,0,.531.531H21.251v3.719a.5.5,0,0,0,.316.481.518.518,0,0,0,.581-.1l6.375-5.878a.543.543,0,0,0,.166-.4A.524.524,0,0,0,28.522,143Z" fill="#fff"/>
  </g>
</svg>
