<svg id="shop" xmlns="http://www.w3.org/2000/svg" width="36.565" height="36.708" viewBox="0 0 36.565 36.708">
  <path id="Path_21" data-name="Path 21" d="M311,340.3h1.075a1.075,1.075,0,0,1,0,2.151H311v6.166h5.736V336H311Z" transform="translate(-288.774 -311.91)" fill="#e4e4e4"/>
  <path id="Path_22" data-name="Path 22" d="M121,336h6.453v4.3H121Z" transform="translate(-112.397 -311.91)" fill="#e4e4e4"/>
  <path id="Path_23" data-name="Path 23" d="M4.764,196.66A3.764,3.764,0,0,0,8.528,192.9V192H1v.9A3.764,3.764,0,0,0,4.764,196.66Z" transform="translate(-1 -178.235)" fill="#e4e4e4"/>
  <path id="Path_24" data-name="Path 24" d="M271,192.9a3.764,3.764,0,1,0,7.528,0V192H271Z" transform="translate(-251.642 -178.235)" fill="#e4e4e4"/>
  <path id="Path_25" data-name="Path 25" d="M136,192.9a3.764,3.764,0,1,0,7.528,0V192H136Z" transform="translate(-126.321 -178.235)" fill="#e4e4e4"/>
  <path id="Path_26" data-name="Path 26" d="M47.527,251.847a5.906,5.906,0,0,1-9.679,0,5.906,5.906,0,0,1-9.679,0A5.906,5.906,0,0,1,21,253.888v15.535a1.075,1.075,0,0,0,1.075,1.075H39.641V256.8a1.075,1.075,0,0,1,1.075-1.075H48.6a1.075,1.075,0,0,1,1.075,1.075V270.5h3.943a1.075,1.075,0,0,0,1.075-1.075V253.888a5.906,5.906,0,0,1-7.17-2.041ZM36.773,263.258a1.075,1.075,0,0,1-1.075,1.075h-8.6a1.075,1.075,0,0,1-1.075-1.075V256.8a1.075,1.075,0,0,1,1.075-1.075h8.6a1.075,1.075,0,0,1,1.075,1.075Z" transform="translate(-19.566 -233.791)" fill="#e4e4e4"/>
  <path id="Path_27" data-name="Path 27" d="M406,192v.9a3.764,3.764,0,1,0,7.528,0V192Z" transform="translate(-376.963 -178.235)" fill="#e4e4e4"/>
  <path id="Path_28" data-name="Path 28" d="M271,87v5.377h7.335L276.692,87Z" transform="translate(-251.642 -80.763)" fill="#e4e4e4"/>
  <path id="Path_29" data-name="Path 29" d="M146.024,92.377V87h-5.692l-1.643,5.377Z" transform="translate(-128.817 -80.763)" fill="#e4e4e4"/>
  <path id="Path_30" data-name="Path 30" d="M16.38,87H10.873L7.587,92.377h7.15Z" transform="translate(-7.115 -80.763)" fill="#e4e4e4"/>
  <path id="Path_31" data-name="Path 31" d="M383.408,92.377h7.15L387.272,87h-5.507Z" transform="translate(-354.466 -80.763)" fill="#e4e4e4"/>
  <path id="Path_32" data-name="Path 32" d="M84.678,1.075A1.075,1.075,0,0,0,83.6,0H57.075A1.075,1.075,0,0,0,56,1.075V4.087H84.678Z" transform="translate(-52.057)" fill="#e4e4e4"/>
</svg>
