<svg xmlns="http://www.w3.org/2000/svg" width="24.376" height="24.375" viewBox="0 0 24.376 24.375">
  <g id="Group_27" data-name="Group 27" transform="translate(-262.508 -254.5)">
    <g id="Group_26" data-name="Group 26" transform="translate(262.508 254.5)">
      <g id="edit" transform="translate(0 0)">
        <path id="Path_15" data-name="Path 15" d="M19.3,93.942a1.015,1.015,0,0,0-1.016,1.016v8.125a1.017,1.017,0,0,1-1.016,1.016H3.047a1.017,1.017,0,0,1-1.016-1.016V88.863a1.017,1.017,0,0,1,1.016-1.016h8.125a1.016,1.016,0,0,0,0-2.031H3.047A3.051,3.051,0,0,0,0,88.863v14.22a3.051,3.051,0,0,0,3.047,3.047h14.22a3.051,3.051,0,0,0,3.047-3.047V94.957A1.015,1.015,0,0,0,19.3,93.942Zm0,0" transform="translate(0 -81.754)" fill="#fff"/>
        <path id="Path_16" data-name="Path 16" d="M182.676,76.3a.514.514,0,0,0-.139.259l-.718,3.592a.507.507,0,0,0,.5.607.483.483,0,0,0,.1-.01l3.59-.718a.506.506,0,0,0,.26-.139l8.036-8.036-3.59-3.59Zm0,0" transform="translate(-173.153 -65.036)" fill="#fff"/>
        <path id="Path_17" data-name="Path 17" d="M396.442,1.244a2.541,2.541,0,0,0-3.59,0l-1.406,1.406,3.59,3.59,1.406-1.406a2.539,2.539,0,0,0,0-3.59Zm0,0" transform="translate(-372.809 -0.501)" fill="#fff"/>
      </g>
    </g>
  </g>
</svg>
