<svg xmlns="http://www.w3.org/2000/svg" width="12.791" height="10.641" viewBox="0 0 12.791 10.641">
  <path id="Path_27" data-name="Path 27" d="M442.118,442.148a3.269,3.269,0,0,0-4.282,1.742c-.038.087-.076.188-.113.3-.038-.111-.076-.211-.112-.3a3.27,3.27,0,0,0-6.026,2.54c.6,1.435,4.719,4.934,5.84,5.869a.916.916,0,0,0,.225.188l.055.045.018-.009.017.009.055-.045a.92.92,0,0,0,.227-.188c1.12-.935,5.233-4.434,5.838-5.869A3.268,3.268,0,0,0,442.118,442.148Z" transform="translate(-431.327 -441.891)" fill="red"/>
</svg>
