<svg id="help" xmlns="http://www.w3.org/2000/svg" width="35.132" height="35.132" viewBox="0 0 35.132 35.132">
  <g id="Group_30" data-name="Group 30">
    <g id="Group_29" data-name="Group 29">
      <path id="Path_18" data-name="Path 18" d="M223.485,343.22a1.842,1.842,0,0,0,0,3.683,1.842,1.842,0,0,0,0-3.683Z" transform="translate(-206.457 -319.669)" fill="#e4e4e4"/>
      <path id="Path_19" data-name="Path 19" d="M188.734,140c-3.229,0-4.712,1.913-4.712,3.205a1.372,1.372,0,0,0,1.435,1.363c1.292,0,.765-1.842,3.2-1.842,1.2,0,2.153.526,2.153,1.626,0,1.292-1.339,2.033-2.129,2.7a4.378,4.378,0,0,0-1.6,3.636c0,1.244.335,1.6,1.315,1.6,1.172,0,1.411-.526,1.411-.981a3,3,0,0,1,1.339-2.99c.646-.5,2.679-2.129,2.679-4.377S191.8,140,188.734,140Z" transform="translate(-171.395 -130.395)" fill="#e4e4e4"/>
      <path id="Path_20" data-name="Path 20" d="M17.566,0A17.557,17.557,0,0,0,0,17.566V33.76a1.372,1.372,0,0,0,1.372,1.372H17.566A17.566,17.566,0,0,0,17.566,0Zm0,32.387H2.745V17.566A14.821,14.821,0,1,1,17.566,32.387Z" fill="#e4e4e4"/>
    </g>
  </g>
</svg>
