<svg xmlns="http://www.w3.org/2000/svg" width="19.785" height="27.347" viewBox="0 0 19.785 27.347">
  <g id="Group_414" data-name="Group 414" transform="translate(-276.215 -21)">
    <g id="tracking" transform="translate(199.966 23.333)">
      <g id="Group_413" data-name="Group 413" transform="translate(76.249)">
        <path id="Path_273" data-name="Path 273" d="M85.034,5.857a2.928,2.928,0,1,0,2.928,2.928A2.932,2.932,0,0,0,85.034,5.857Zm0,0a2.928,2.928,0,1,0,2.928,2.928A2.932,2.932,0,0,0,85.034,5.857Zm0-5.857a8.8,8.8,0,0,0-8.785,8.785c0,6.053,7.888,15.563,8.223,15.966a.732.732,0,0,0,1.124,0c.336-.4,8.223-9.913,8.223-15.966A8.8,8.8,0,0,0,85.034,0Zm5.125,9.517h-.794a4.4,4.4,0,0,1-3.6,3.6v.794a.732.732,0,0,1-1.464,0v-.794a4.4,4.4,0,0,1-3.6-3.6H79.91a.732.732,0,0,1,0-1.464H80.7a4.4,4.4,0,0,1,3.6-3.6V3.661a.732.732,0,0,1,1.464,0v.794a4.4,4.4,0,0,1,3.6,3.6h.794a.732.732,0,0,1,0,1.464ZM85.034,5.857a2.928,2.928,0,1,0,2.928,2.928A2.932,2.932,0,0,0,85.034,5.857Zm0,0a2.928,2.928,0,1,0,2.928,2.928A2.932,2.932,0,0,0,85.034,5.857Zm0,0a2.928,2.928,0,1,0,2.928,2.928A2.932,2.932,0,0,0,85.034,5.857Z" transform="translate(-76.249)" fill="#fff"/>
      </g>
    </g>
    <circle id="Ellipse_92" data-name="Ellipse 92" cx="4" cy="4" r="4" transform="translate(288 21)" fill="red"/>
  </g>
</svg>
