<svg id="password" xmlns="http://www.w3.org/2000/svg" width="54.302" height="54.302" viewBox="0 0 54.302 54.302">
  <g id="Group_8" data-name="Group 8" transform="translate(17.01 16.969)">
    <g id="Group_7" data-name="Group 7">
      <path id="Path_6" data-name="Path 6" d="M162.939,156.842l-1.131-1.96-2.222,1.283V153.6h-2.263v2.565l-2.222-1.283-1.131,1.96,2.222,1.283-2.222,1.283,1.131,1.96,2.222-1.283v2.565h2.263v-2.566l2.222,1.283,1.131-1.96-2.222-1.283Z" transform="translate(-153.97 -153.6)" fill="#fff"/>
    </g>
  </g>
  <g id="Group_10" data-name="Group 10" transform="translate(28.323 16.969)">
    <g id="Group_9" data-name="Group 9">
      <path id="Path_7" data-name="Path 7" d="M265.339,156.842l-1.131-1.96-2.222,1.283V153.6h-2.263v2.565l-2.222-1.283-1.131,1.96,2.222,1.283-2.222,1.283,1.131,1.96,2.222-1.283v2.565h2.263v-2.566l2.222,1.283,1.131-1.96-2.222-1.283Z" transform="translate(-256.37 -153.6)" fill="#fff"/>
    </g>
  </g>
  <g id="Group_12" data-name="Group 12" transform="translate(39.636 16.969)">
    <g id="Group_11" data-name="Group 11">
      <path id="Path_8" data-name="Path 8" d="M367.739,156.842l-1.131-1.96-2.222,1.283V153.6h-2.263v2.565l-2.222-1.283-1.131,1.96,2.222,1.283-2.222,1.283,1.131,1.96,2.222-1.283v2.565h2.263v-2.566l2.222,1.283,1.131-1.96-2.222-1.283Z" transform="translate(-358.77 -153.6)" fill="#fff"/>
    </g>
  </g>
  <g id="Group_14" data-name="Group 14" transform="translate(13.979 33.292)">
    <g id="Group_13" data-name="Group 13">
      <path id="Path_9" data-name="Path 9" d="M137.037,316.7l-1.4-7.152a4.929,4.929,0,0,0,1.159-3.191,5.01,5.01,0,1,0-10.02,0,4.929,4.929,0,0,0,1.159,3.191l-1.4,7.152Zm-5.254-13.09a2.751,2.751,0,0,1,2.748,2.748,2.714,2.714,0,0,1-.888,2.007l-.463.429,1.108,5.644H129.28l1.108-5.644-.463-.429a2.714,2.714,0,0,1-.888-2.007A2.751,2.751,0,0,1,131.783,303.613Z" transform="translate(-126.53 -301.35)" fill="#fff"/>
    </g>
  </g>
  <g id="Group_16" data-name="Group 16">
    <g id="Group_15" data-name="Group 15">
      <path id="Path_10" data-name="Path 10" d="M32.807,13.575a13.575,13.575,0,0,0-27.151,0V24.888H0V54.3H38.464V29.413H54.3V13.575Zm-24.888,0a11.313,11.313,0,0,1,22.626,0h-18.1V24.888H7.919ZM36.2,52.039H2.263V27.151H12.444v2.263H36.2ZM52.039,27.151H14.707V15.838H52.039Z" fill="#fff"/>
    </g>
  </g>
</svg>
