<svg id="envelope" xmlns="http://www.w3.org/2000/svg" width="19.284" height="14.463" viewBox="0 0 19.284 14.463">
  <g id="Group_25" data-name="Group 25" transform="translate(0 0)">
    <g id="Group_24" data-name="Group 24">
      <path id="Path_12" data-name="Path 12" d="M7.056,65.173c2.647,2.241,7.291,6.185,8.656,7.414a.806.806,0,0,0,1.166,0c1.366-1.231,6.01-5.174,8.657-7.416a.4.4,0,0,0,.056-.554A1.6,1.6,0,0,0,24.33,64H8.26A1.6,1.6,0,0,0,7,64.619.4.4,0,0,0,7.056,65.173Z" transform="translate(-6.653 -64)" fill="#707070"/>
      <path id="Path_13" data-name="Path 13" d="M19.051,126.449a.4.4,0,0,0-.428.058c-2.935,2.488-6.681,5.677-7.86,6.739a1.627,1.627,0,0,1-2.243,0c-1.256-1.132-5.463-4.708-7.859-6.739a.4.4,0,0,0-.661.306v10.1a1.609,1.609,0,0,0,1.607,1.607h16.07a1.609,1.609,0,0,0,1.607-1.607v-10.1A.4.4,0,0,0,19.051,126.449Z" transform="translate(0 -124.061)" fill="#707070"/>
    </g>
  </g>
</svg>
