<svg id="smartphone-call" xmlns="http://www.w3.org/2000/svg" width="13.964" height="20.464" viewBox="0 0 13.964 20.464">
  <path id="Path_5" data-name="Path 5" d="M19.674,0H8.958A1.522,1.522,0,0,0,7.334,1.382v17.7a1.522,1.522,0,0,0,1.624,1.383H19.674A1.521,1.521,0,0,0,21.3,19.082V1.382A1.522,1.522,0,0,0,19.674,0ZM12.6,1H16.03a.184.184,0,0,1,.2.168.184.184,0,0,1-.2.167H12.6a.184.184,0,0,1-.2-.167A.184.184,0,0,1,12.6,1Zm1.714,18.776a.7.7,0,1,1,.812-.692A.759.759,0,0,1,14.316,19.773Zm5.852-1.867H8.464V2.192h11.7Z" transform="translate(-7.334 0)" fill="#afb1b3"/>
</svg>
