<svg xmlns="http://www.w3.org/2000/svg" xmlns:xlink="http://www.w3.org/1999/xlink" width="248" height="248" viewBox="0 0 248 248">
  <defs>
    <filter id="Ellipse_78" x="0" y="0" width="248" height="248" filterUnits="userSpaceOnUse">
      <feOffset dy="3" input="SourceAlpha"/>
      <feGaussianBlur stdDeviation="20" result="blur"/>
      <feFlood/>
      <feComposite operator="in" in2="blur"/>
      <feComposite in="SourceGraphic"/>
    </filter>
  </defs>
  <g id="Group_539" data-name="Group 539" transform="translate(-64 -3)">
    <g transform="matrix(1, 0, 0, 1, 64, 3)" filter="url(#Ellipse_78)">
      <circle id="Ellipse_78-2" data-name="Ellipse 78" cx="64" cy="64" r="64" transform="translate(60 57)" fill="#fff"/>
    </g>
    <g id="user" transform="translate(151 80)">
      <path id="Path_113" data-name="Path 113" d="M129.671,21.316a20.629,20.629,0,0,1-6.245,15.073,20.628,20.628,0,0,1-15.073,6.245h-.01A20.631,20.631,0,0,1,93.28,36.39a20.626,20.626,0,0,1-6.245-15.073A20.624,20.624,0,0,1,93.28,6.245,20.622,20.622,0,0,1,108.343,0h.01a20.634,20.634,0,0,1,15.073,6.245A20.626,20.626,0,0,1,129.671,21.316Zm0,0" transform="translate(-71.99)" fill="#ffbb85"/>
      <path id="Path_114" data-name="Path 114" d="M73.844,277.853c0,4.621-1.47,8.363-4.366,11.119a15.712,15.712,0,0,1-11.249,4.1H15.612a15.7,15.7,0,0,1-11.246-4.1C1.468,286.214,0,282.473,0,277.853c0-1.777.059-3.536.176-5.227a52.332,52.332,0,0,1,.718-5.6,44.151,44.151,0,0,1,1.374-5.621,27.881,27.881,0,0,1,2.311-5.245,19.852,19.852,0,0,1,3.484-4.543,15.371,15.371,0,0,1,5.008-3.147,17.312,17.312,0,0,1,6.392-1.156c.9,0,1.777.369,3.463,1.467,1.055.688,2.27,1.471,3.612,2.329a20.618,20.618,0,0,0,4.668,2.057,18.61,18.61,0,0,0,5.145.913q.283.01.565.01a18.566,18.566,0,0,0,5.713-.923,20.619,20.619,0,0,0,4.669-2.057c1.356-.866,2.571-1.649,3.611-2.327,1.687-1.1,2.56-1.469,3.465-1.469a17.322,17.322,0,0,1,6.391,1.156,15.384,15.384,0,0,1,5.007,3.147,19.781,19.781,0,0,1,3.486,4.543,27.786,27.786,0,0,1,2.311,5.243,44.116,44.116,0,0,1,1.376,5.624,52.816,52.816,0,0,1,.716,5.592c.12,1.685.178,3.444.18,5.228Zm0,0" transform="translate(0 -204.566)" fill="#6aa9ff"/>
      <path id="Path_115" data-name="Path 115" d="M210.3,42.634h-.01V0h.01a20.634,20.634,0,0,1,15.073,6.245,20.626,20.626,0,0,1,6.245,15.071,20.629,20.629,0,0,1-6.245,15.073A20.627,20.627,0,0,1,210.3,42.634Zm0,0" transform="translate(-173.941)" fill="#f5a86c"/>
      <path id="Path_116" data-name="Path 116" d="M247.783,277.853c0,4.621-1.47,8.363-4.366,11.119a15.712,15.712,0,0,1-11.249,4.1H210.293V254.087q.283.01.565.01a18.566,18.566,0,0,0,5.713-.923,20.615,20.615,0,0,0,4.669-2.058c1.356-.866,2.571-1.649,3.611-2.327,1.687-1.1,2.56-1.469,3.465-1.469a17.322,17.322,0,0,1,6.391,1.156,15.384,15.384,0,0,1,5.007,3.147,19.781,19.781,0,0,1,3.486,4.542,27.786,27.786,0,0,1,2.311,5.243,44.106,44.106,0,0,1,1.376,5.624,52.816,52.816,0,0,1,.716,5.592c.12,1.685.178,3.444.18,5.228Zm0,0" transform="translate(-173.94 -204.567)" fill="#2682ff"/>
    </g>
  </g>
</svg>
