<svg xmlns="http://www.w3.org/2000/svg" width="23.879" height="30.116" viewBox="0 0 23.879 30.116">
  <g id="shopping-bag" transform="translate(-53.02)">
    <g id="Group_517" data-name="Group 517" transform="translate(53.02)">
      <g id="Group_516" data-name="Group 516">
        <path id="Path_117" data-name="Path 117" d="M76.885,24.835,75.54,7.888a2.118,2.118,0,0,0-2.1-1.947H70.781V5.821a5.821,5.821,0,1,0-11.643,0v.119H56.482a2.117,2.117,0,0,0-2.1,1.945L53.034,24.838a4.9,4.9,0,0,0,4.889,5.279H72a4.9,4.9,0,0,0,4.889-5.281ZM60.9,5.821a4.057,4.057,0,0,1,8.115,0v.119H60.9ZM74.3,27.346A3.107,3.107,0,0,1,72,28.352H57.924a3.14,3.14,0,0,1-3.131-3.378L56.138,8.023a.346.346,0,0,1,.343-.318h2.656V9.877a.882.882,0,0,0,1.764,0V7.7h8.115V9.877a.882.882,0,1,0,1.764,0V7.7h2.657a.346.346,0,0,1,.343.32l1.345,16.947A3.108,3.108,0,0,1,74.3,27.346Z" transform="translate(-53.02)" fill="#f5f5f5"/>
      </g>
    </g>
    <g id="Group_519" data-name="Group 519" transform="translate(60.728 14.699)">
      <g id="Group_518" data-name="Group 518">
        <path id="Path_118" data-name="Path 118" d="M192.258,250.151a.882.882,0,0,0-1.247,0l-3.938,3.938-1.514-1.514a.882.882,0,0,0-1.247,1.247l2.138,2.138a.882.882,0,0,0,1.247,0l4.562-4.562A.882.882,0,0,0,192.258,250.151Z" transform="translate(-184.052 -249.893)" fill="#f5f5f5"/>
      </g>
    </g>
  </g>
</svg>
