<svg xmlns="http://www.w3.org/2000/svg" width="26.244" height="26.753" viewBox="0 0 26.244 26.753">
  <g id="Group_536" data-name="Group 536" transform="translate(-247.495 -81.5)">
    <path id="Path_140" data-name="Path 140" d="M29.829,14.3l-.39-.533a1.68,1.68,0,0,1-.016-1.958l.38-.538a1.68,1.68,0,0,0-.58-2.449l-.58-.311a1.672,1.672,0,0,1-.86-1.757l.111-.649a1.676,1.676,0,0,0-1.583-1.952l-.66-.026a1.682,1.682,0,0,1-1.541-1.208l-.185-.633A1.673,1.673,0,0,0,21.65,1.211l-.607.259a1.672,1.672,0,0,1-1.91-.422L18.695.557a1.673,1.673,0,0,0-2.512.021l-.433.5a1.678,1.678,0,0,1-1.9.449l-.612-.253a1.68,1.68,0,0,0-2.259,1.108l-.174.639a1.666,1.666,0,0,1-1.52,1.23l-.66.037A1.675,1.675,0,0,0,7.07,6.262l.121.649a1.673,1.673,0,0,1-.834,1.768L5.782,9a1.675,1.675,0,0,0-.538,2.454l.39.533a1.68,1.68,0,0,1,.016,1.958l-.38.538a1.68,1.68,0,0,0,.58,2.449l.58.311A1.672,1.672,0,0,1,7.291,19l-.111.649A1.676,1.676,0,0,0,8.763,21.6l.66.026a1.682,1.682,0,0,1,1.541,1.208l.185.633a1.673,1.673,0,0,0,2.274,1.071l.607-.259a1.672,1.672,0,0,1,1.91.422l.438.491a1.673,1.673,0,0,0,2.512-.021l.433-.5a1.678,1.678,0,0,1,1.9-.449l.612.253A1.68,1.68,0,0,0,24.1,23.375l.174-.639a1.666,1.666,0,0,1,1.52-1.23l.66-.037A1.675,1.675,0,0,0,28,19.491l-.121-.649a1.673,1.673,0,0,1,.834-1.768l.575-.322A1.673,1.673,0,0,0,29.829,14.3ZM11.513,10.689a2.6,2.6,0,1,1,2.6,2.6A2.594,2.594,0,0,1,11.513,10.689Zm3.1,6.7a.635.635,0,0,1-.892.084h0a.635.635,0,0,1-.084-.892l6.813-8.206a.633.633,0,0,1,.976.807Zm6.343.269a2.6,2.6,0,1,1,2.6-2.6A2.594,2.594,0,0,1,20.953,17.654Z" transform="translate(243.081 82)" fill="#f5f5f5" stroke="#707070" stroke-width="1"/>
    <circle id="Ellipse_87" data-name="Ellipse 87" cx="1.077" cy="1.077" r="1.077" transform="translate(256.118 91.613)" fill="#f5f5f5" stroke="#707070" stroke-width="1"/>
    <circle id="Ellipse_88" data-name="Ellipse 88" cx="1.077" cy="1.077" r="1.077" transform="translate(262.957 95.982)" fill="#f5f5f5" stroke="#707070" stroke-width="1"/>
  </g>
</svg>
