<svg id="inclined-key" xmlns="http://www.w3.org/2000/svg" width="16.907" height="16.907" viewBox="0 0 16.907 16.907">
  <path id="Path_2" data-name="Path 2" d="M99.7,209.043l-6.425,6.424a.536.536,0,1,0,.757.757l6.425-6.424a.536.536,0,0,0-.757-.757Z" transform="translate(-90.214 -202.377)" fill="#afb1b3"/>
  <path id="Path_3" data-name="Path 3" d="M15.514,1.483a5.065,5.065,0,0,0-8.23,5.594L.2,14.154a.383.383,0,0,0-.112.27l0,2.1s0,.007,0,.011h0a.383.383,0,0,0,.376.372H.47l4.065,0h0a.383.383,0,0,0,.383-.383V14.931H6.513a.383.383,0,0,0,.383-.383V12.955H8.49a.383.383,0,0,0,.383-.383V10.754L9.917,9.71a5.064,5.064,0,0,0,5.6-8.227ZM14.973,8.1a4.3,4.3,0,0,1-4.965.805.383.383,0,0,0-.442.072L8.219,10.325a.382.382,0,0,0-.112.27V12.19H6.513a.383.383,0,0,0-.383.383v1.594H4.536a.383.383,0,0,0-.383.383v1.593l-2.759,0,1.825-1.825a.383.383,0,0,0-.541-.541L.855,15.595l0-1.011L8.015,7.429a.382.382,0,0,0,.072-.442A4.3,4.3,0,1,1,14.973,8.1Z" transform="translate(-0.088 0)" fill="#afb1b3"/>
  <path id="Path_4" data-name="Path 4" d="M290.373,59.118h0a2.517,2.517,0,1,0,3.559,0A2.52,2.52,0,0,0,290.373,59.118Zm2.8,2.8a1.446,1.446,0,0,1-2.045-2.045h0a1.446,1.446,0,0,1,2.045,2.045Z" transform="translate(-280.169 -55.787)" fill="#afb1b3"/>
</svg>
