<svg xmlns="http://www.w3.org/2000/svg" xmlns:xlink="http://www.w3.org/1999/xlink" width="166" height="166" viewBox="0 0 166 166">
  <defs>
    <filter id="Rectangle_56" x="0" y="0" width="166" height="166" filterUnits="userSpaceOnUse">
      <feOffset dy="3" input="SourceAlpha"/>
      <feGaussianBlur stdDeviation="10" result="blur"/>
      <feFlood/>
      <feComposite operator="in" in2="blur"/>
      <feComposite in="SourceGraphic"/>
    </filter>
    <filter id="Ellipse_77" x="102" y="104" width="48" height="48" filterUnits="userSpaceOnUse">
      <feOffset dy="3" input="SourceAlpha"/>
      <feGaussianBlur stdDeviation="3" result="blur-2"/>
      <feFlood flood-opacity="0.678"/>
      <feComposite operator="in" in2="blur-2"/>
      <feComposite in="SourceGraphic"/>
    </filter>
  </defs>
  <g id="Group_538" data-name="Group 538" transform="translate(-105 -50)">
    <g transform="matrix(1, 0, 0, 1, 105, 50)" filter="url(#Rectangle_56)">
      <rect id="Rectangle_56-2" data-name="Rectangle 56" width="106" height="106" rx="30" transform="translate(30 27)" fill="#707070"/>
    </g>
    <g transform="matrix(1, 0, 0, 1, 105, 50)" filter="url(#Ellipse_77)">
      <circle id="Ellipse_77-2" data-name="Ellipse 77" cx="15" cy="15" r="15" transform="translate(111 110)" fill="red"/>
    </g>
    <g id="user" transform="translate(160 96.002)" opacity="0.39">
      <path id="Path_113" data-name="Path 113" d="M119.945,16.453a15.923,15.923,0,0,1-4.82,11.635,15.923,15.923,0,0,1-11.635,4.82h-.008a15.925,15.925,0,0,1-11.627-4.82,15.921,15.921,0,0,1-4.82-11.635A15.92,15.92,0,0,1,91.855,4.82,15.918,15.918,0,0,1,103.482,0h.008a15.927,15.927,0,0,1,11.635,4.82A15.921,15.921,0,0,1,119.945,16.453Zm0,0" transform="translate(-75.421 0)" fill="#fff"/>
      <path id="Path_114" data-name="Path 114" d="M57,270.888a11.342,11.342,0,0,1-3.37,8.583,12.128,12.128,0,0,1-8.683,3.165h-32.9a12.119,12.119,0,0,1-8.681-3.165A11.34,11.34,0,0,1,0,270.888c0-1.372.046-2.729.136-4.035a40.4,40.4,0,0,1,.554-4.319A34.081,34.081,0,0,1,1.751,258.2a21.521,21.521,0,0,1,1.784-4.049,15.324,15.324,0,0,1,2.689-3.507,11.865,11.865,0,0,1,3.866-2.429,13.364,13.364,0,0,1,4.934-.892,5.007,5.007,0,0,1,2.673,1.132c.814.531,1.752,1.135,2.788,1.8a15.915,15.915,0,0,0,3.6,1.588,14.365,14.365,0,0,0,3.971.7q.218.008.436.008a14.331,14.331,0,0,0,4.41-.712,15.916,15.916,0,0,0,3.6-1.588c1.047-.668,1.985-1.273,2.787-1.8a4.994,4.994,0,0,1,2.675-1.134,13.371,13.371,0,0,1,4.933.892,11.875,11.875,0,0,1,3.865,2.429,15.269,15.269,0,0,1,2.691,3.507,21.448,21.448,0,0,1,1.784,4.047,34.052,34.052,0,0,1,1.062,4.341,40.769,40.769,0,0,1,.553,4.316c.093,1.3.137,2.658.139,4.035Zm0,0" transform="translate(0 -214.318)" fill="#fff"/>
      <path id="Path_115" data-name="Path 115" d="M210.3,32.909h-.008V0h.008A15.927,15.927,0,0,1,221.933,4.82a15.921,15.921,0,0,1,4.821,11.633,15.923,15.923,0,0,1-4.821,11.635A15.922,15.922,0,0,1,210.3,32.909Zm0,0" transform="translate(-182.232 0)" fill="#fff"/>
      <path id="Path_116" data-name="Path 116" d="M239.231,270.888a11.342,11.342,0,0,1-3.37,8.583,12.128,12.128,0,0,1-8.683,3.165H210.293V252.543q.218.008.436.008a14.331,14.331,0,0,0,4.41-.712,15.913,15.913,0,0,0,3.6-1.589c1.047-.668,1.985-1.273,2.787-1.8a4.994,4.994,0,0,1,2.675-1.134,13.37,13.37,0,0,1,4.933.892A11.874,11.874,0,0,1,233,250.641a15.269,15.269,0,0,1,2.691,3.506,21.448,21.448,0,0,1,1.784,4.047,34.04,34.04,0,0,1,1.062,4.341,40.762,40.762,0,0,1,.553,4.316c.093,1.3.137,2.658.139,4.035Zm0,0" transform="translate(-182.232 -214.319)" fill="#fff"/>
    </g>
    <g id="XMLID_17_" transform="translate(223 169)">
      <path id="XMLID_18_" d="M14.484,46.984H11.672l-.6-1.6A.6.6,0,0,0,10.516,45H4.96a.6.6,0,0,0-.557.386l-.6,1.6H.992A.992.992,0,0,0,0,47.976v7.936a.992.992,0,0,0,.992.992H14.484a.992.992,0,0,0,.992-.992V47.976A.992.992,0,0,0,14.484,46.984Zm-6.746,1.19a3.77,3.77,0,1,1-3.77,3.77A3.774,3.774,0,0,1,7.738,48.175Z" transform="translate(0 -45)" fill="#fff"/>
      <path id="XMLID_21_" d="M130,157.579A2.579,2.579,0,1,0,132.579,155,2.582,2.582,0,0,0,130,157.579Z" transform="translate(-124.841 -150.635)" fill="#fff"/>
    </g>
  </g>
</svg>
