<svg xmlns="http://www.w3.org/2000/svg" xmlns:xlink="http://www.w3.org/1999/xlink" width="59.158" height="59.482" viewBox="0 0 59.158 59.482">
  <defs>
    <filter id="Path_122" x="0" y="0" width="52.889" height="52.826" filterUnits="userSpaceOnUse">
      <feOffset dy="3" input="SourceAlpha"/>
      <feGaussianBlur stdDeviation="3" result="blur"/>
      <feFlood/>
      <feComposite operator="in" in2="blur"/>
      <feComposite in="SourceGraphic"/>
    </filter>
    <filter id="Ellipse_79" x="18.48" y="18.804" width="40.678" height="40.678" filterUnits="userSpaceOnUse">
      <feOffset dy="3" input="SourceAlpha"/>
      <feGaussianBlur stdDeviation="3" result="blur-2"/>
      <feFlood/>
      <feComposite operator="in" in2="blur-2"/>
      <feComposite in="SourceGraphic"/>
    </filter>
  </defs>
  <g id="Group_28" data-name="Group 28" transform="translate(-145.538 -598.089)">
    <g transform="matrix(1, 0, 0, 1, 145.54, 598.09)" filter="url(#Path_122)">
      <path id="Path_122-2" data-name="Path 122" d="M30.529,15.674a14.965,14.965,0,0,1,2.625.246l1.364-1.4a1.309,1.309,0,0,0-.738-2.207l-10.46-1.6L18.631.724a1.362,1.362,0,0,0-2.367,0l-4.693,9.994-10.46,1.6a1.309,1.309,0,0,0-.74,2.207l7.606,7.8L6.177,33.35A1.308,1.308,0,0,0,8.1,34.7l7.6-4.2A14.845,14.845,0,0,1,30.529,15.674Z" transform="translate(9 5.96)" fill="#e4e4e4"/>
    </g>
    <g transform="matrix(1, 0, 0, 1, 145.54, 598.09)" filter="url(#Ellipse_79)">
      <circle id="Ellipse_79-2" data-name="Ellipse 79" cx="11.339" cy="11.339" r="11.339" transform="translate(27.48 24.8)" fill="#e4e4e4"/>
    </g>
    <g id="like" transform="translate(179.373 627.125)">
      <g id="Group_336" data-name="Group 336" transform="translate(8.085 2.205)">
        <g id="Group_335" data-name="Group 335">
          <path id="Path_123" data-name="Path 123" d="M362.31,90.17h-.735a.368.368,0,0,0,0,.735h.735a.368.368,0,1,0,0-.735Z" transform="translate(-361.207 -90.17)" fill="#282a2e"/>
        </g>
      </g>
      <g id="Group_338" data-name="Group 338" transform="translate(4.41)">
        <g id="Group_337" data-name="Group 337">
          <path id="Path_124" data-name="Path 124" d="M211.971.938,211.6.2a.368.368,0,0,0-.658.329l.368.735a.368.368,0,1,0,.657-.329Z" transform="translate(-210.907)" fill="#282a2e"/>
        </g>
      </g>
      <g id="Group_340" data-name="Group 340" transform="translate(6.983)">
        <g id="Group_339" data-name="Group 339">
          <path id="Path_125" data-name="Path 125" d="M317.012.039a.368.368,0,0,0-.493.164l-.368.735a.368.368,0,0,0,.658.329l.367-.735a.368.368,0,0,0-.164-.493Z" transform="translate(-316.112)" fill="#282a2e"/>
        </g>
      </g>
      <g id="Group_342" data-name="Group 342" transform="translate(2.94 2.205)">
        <g id="Group_341" data-name="Group 341">
          <path id="Path_126" data-name="Path 126" d="M151.9,90.17h-.735a.368.368,0,1,0,0,.735h.735a.368.368,0,0,0,0-.735Z" transform="translate(-150.793 -90.17)" fill="#282a2e"/>
        </g>
      </g>
      <g id="Group_344" data-name="Group 344" transform="translate(0 5.905)">
        <g id="Group_343" data-name="Group 343">
          <path id="Path_127" data-name="Path 127" d="M32.394,241.468h-1.47a.368.368,0,0,0-.368.368v5.88a.368.368,0,0,0,.368.368h1.47a.368.368,0,0,0,.368-.368v-5.88a.367.367,0,0,0-.368-.368Z" transform="translate(-30.556 -241.468)" fill="#282a2e"/>
        </g>
      </g>
      <g id="Group_346" data-name="Group 346" transform="translate(2.94 2.229)">
        <g id="Group_345" data-name="Group 345">
          <path id="Path_128" data-name="Path 128" d="M158.872,95.821a1.156,1.156,0,0,0-1.171-.974h-2.865a6.345,6.345,0,0,0,.368-2.173,1.53,1.53,0,0,0-1.534-1.5h-.3a.367.367,0,0,0-.368.368,5.131,5.131,0,0,1-.955,3.008,4.071,4.071,0,0,1-1.25.808v5.515a8.586,8.586,0,0,0,3.032.593h2.4a1.117,1.117,0,0,0,1.1-1.509,1.1,1.1,0,0,0,.735-1.47,1.1,1.1,0,0,0,.531-1.8,1.1,1.1,0,0,0,.277-.866Z" transform="translate(-150.794 -91.172)" fill="#282a2e"/>
        </g>
      </g>
    </g>
  </g>
</svg>
