<svg xmlns="http://www.w3.org/2000/svg" width="20.081" height="20.082" viewBox="0 0 20.081 20.082">
  <g id="search" opacity="0.34">
    <g id="Group_9" data-name="Group 9" transform="translate(0)">
      <path id="Path_28" data-name="Path 28" d="M2.383,13.906A8.148,8.148,0,0,1,13.907,2.383a7.99,7.99,0,0,1,1.226,9.834.343.343,0,0,0,.047.408l4.157,4.157a1.9,1.9,0,0,1,.291,2.718l-.126.126a1.9,1.9,0,0,1-2.718-.29l-4.149-4.149a.348.348,0,0,0-.417-.056A7.99,7.99,0,0,1,2.383,13.906ZM12.4,12.4a6.021,6.021,0,1,0-8.515,0A6.028,6.028,0,0,0,12.4,12.4Z" transform="translate(-0.001 0)"/>
      <g id="Group_8" data-name="Group 8" transform="translate(5.204 3.261)">
        <path id="Path_29" data-name="Path 29" d="M120.43,54.809a.841.841,0,0,0,.774-1.169,5.3,5.3,0,0,0-6.939-2.813.841.841,0,1,0,.656,1.549,3.616,3.616,0,0,1,4.734,1.919A.841.841,0,0,0,120.43,54.809Z" transform="translate(-113.752 -50.409)"/>
      </g>
    </g>
  </g>
</svg>
