<svg id="update" xmlns="http://www.w3.org/2000/svg" width="26.68" height="26.68" viewBox="0 0 26.68 26.68">
  <path id="Path_119" data-name="Path 119" d="M97.045,93.729a7.74,7.74,0,0,0,.526-1.265h.885a.782.782,0,0,0,.782-.782V88.556a.782.782,0,0,0-.782-.782h-.885a7.74,7.74,0,0,0-.526-1.265l.627-.627a.782.782,0,0,0,0-1.105l-2.211-2.211a.782.782,0,0,0-1.105,0l-.627.627a7.739,7.739,0,0,0-1.265-.526v-.885A.782.782,0,0,0,91.682,81H88.556a.782.782,0,0,0-.782.782v.885a7.744,7.744,0,0,0-1.265.526l-.627-.627a.781.781,0,0,0-1.105,0l-2.211,2.211a.782.782,0,0,0,0,1.105l.627.627a7.738,7.738,0,0,0-.526,1.265h-.885a.782.782,0,0,0-.782.782v3.127a.782.782,0,0,0,.782.782h.885a7.739,7.739,0,0,0,.526,1.265l-.627.627a.782.782,0,0,0,0,1.105l2.211,2.211a.782.782,0,0,0,1.105,0l.627-.627a7.744,7.744,0,0,0,1.265.526v.885a.782.782,0,0,0,.782.782h3.127a.782.782,0,0,0,.782-.782v-.885a7.744,7.744,0,0,0,1.265-.526l.627.627a.782.782,0,0,0,1.105,0l2.211-2.211a.782.782,0,0,0,0-1.105Zm-.834-2.22a6.193,6.193,0,0,1-.8,1.933.782.782,0,0,0,.109.969l.5.5-1.105,1.105-.5-.5a.782.782,0,0,0-.969-.109,6.2,6.2,0,0,1-1.933.8.782.782,0,0,0-.608.762v.7H89.337v-.7a.782.782,0,0,0-.608-.762,6.2,6.2,0,0,1-1.933-.8.782.782,0,0,0-.969.109l-.5.5-1.105-1.105.5-.5a.782.782,0,0,0,.109-.969,6.2,6.2,0,0,1-.8-1.933.782.782,0,0,0-.762-.608h-.7V89.337h.7a.782.782,0,0,0,.762-.608,6.193,6.193,0,0,1,.8-1.933.782.782,0,0,0-.109-.969l-.5-.5,1.105-1.105.5.5a.781.781,0,0,0,.969.109,6.2,6.2,0,0,1,1.933-.8.782.782,0,0,0,.608-.762v-.7H90.9v.7a.782.782,0,0,0,.608.762,6.2,6.2,0,0,1,1.933.8.782.782,0,0,0,.969-.109l.5-.5,1.105,1.105-.5.5a.782.782,0,0,0-.109.969,6.193,6.193,0,0,1,.8,1.933.782.782,0,0,0,.762.608h.7V90.9h-.7A.782.782,0,0,0,96.211,91.509Z" transform="translate(-76.779 -76.779)" fill="#f5f5f5"/>
  <path id="Path_120" data-name="Path 120" d="M165.95,161a4.95,4.95,0,1,0,4.95,4.95A4.956,4.956,0,0,0,165.95,161Zm0,8.337a3.387,3.387,0,1,1,3.387-3.387A3.391,3.391,0,0,1,165.95,169.337Z" transform="translate(-152.61 -152.61)" fill="#f5f5f5"/>
  <path id="Path_121" data-name="Path 121" d="M163.823,21.438h-.363a13.344,13.344,0,0,0-15.794-20.39.782.782,0,1,0,.609,1.44,11.781,11.781,0,0,1,14.243,17.593.781.781,0,0,0-1.561.054V22.22a.782.782,0,0,0,.782.782h2.084a.782.782,0,0,0,0-1.563Z" transform="translate(-139.519)" fill="#f5f5f5"/>
  <path id="Path_122" data-name="Path 122" d="M17.924,91.1A11.781,11.781,0,0,1,3.681,73.506a.781.781,0,0,0,1.561-.053V71.369a.782.782,0,0,0-.782-.782H2.375a.782.782,0,0,0,0,1.563h.363A13.344,13.344,0,0,0,18.533,92.54a.782.782,0,1,0-.609-1.44Z" transform="translate(0 -66.909)" fill="#f5f5f5"/>
</svg>
