<svg xmlns="http://www.w3.org/2000/svg" width="19.753" height="23.679" viewBox="0 0 19.753 23.679">
  <g id="user" transform="translate(0 0.002)" opacity="0.39">
    <path id="Path_113" data-name="Path 113" d="M98.438,5.7a5.518,5.518,0,0,1-1.67,4.032,5.518,5.518,0,0,1-4.032,1.67h0A5.519,5.519,0,0,1,88.7,9.733,5.517,5.517,0,0,1,87.034,5.7,5.517,5.517,0,0,1,88.7,1.669,5.516,5.516,0,0,1,92.733,0h0a5.519,5.519,0,0,1,4.032,1.67A5.517,5.517,0,0,1,98.438,5.7Zm0,0" transform="translate(-83.009 0)" fill="#fff"/>
    <path id="Path_114" data-name="Path 114" d="M19.753,255.486a3.93,3.93,0,0,1-1.168,2.974,4.2,4.2,0,0,1-3.009,1.1H4.176a4.2,4.2,0,0,1-3.008-1.1A3.93,3.93,0,0,1,0,255.486c0-.475.016-.946.047-1.4a14,14,0,0,1,.192-1.5,11.811,11.811,0,0,1,.368-1.5,7.459,7.459,0,0,1,.618-1.4,5.31,5.31,0,0,1,.932-1.215,4.111,4.111,0,0,1,1.34-.842,4.631,4.631,0,0,1,1.71-.309,1.735,1.735,0,0,1,.926.392c.282.184.607.393.966.623a5.516,5.516,0,0,0,1.249.55,4.977,4.977,0,0,0,1.376.244l.151,0a4.967,4.967,0,0,0,1.528-.247,5.515,5.515,0,0,0,1.249-.55c.363-.232.688-.441.966-.622a1.731,1.731,0,0,1,.927-.393,4.633,4.633,0,0,1,1.71.309,4.115,4.115,0,0,1,1.339.842,5.291,5.291,0,0,1,.932,1.215,7.432,7.432,0,0,1,.618,1.4,11.8,11.8,0,0,1,.368,1.5,14.128,14.128,0,0,1,.192,1.5c.032.451.048.921.048,1.4Zm0,0" transform="translate(0 -235.884)" fill="#fff"/>
    <path id="Path_115" data-name="Path 115" d="M210.293,11.4h0V0h0a5.519,5.519,0,0,1,4.032,1.67A5.517,5.517,0,0,1,216,5.7a5.518,5.518,0,0,1-1.671,4.032A5.518,5.518,0,0,1,210.293,11.4Zm0,0" transform="translate(-200.567 0)" fill="#fff"/>
    <path id="Path_116" data-name="Path 116" d="M220.321,255.487a3.93,3.93,0,0,1-1.168,2.974,4.2,4.2,0,0,1-3.009,1.1h-5.851V249.13l.151,0a4.966,4.966,0,0,0,1.528-.247,5.515,5.515,0,0,0,1.249-.55c.363-.232.688-.441.966-.622a1.731,1.731,0,0,1,.927-.393,4.633,4.633,0,0,1,1.71.309,4.115,4.115,0,0,1,1.339.842,5.292,5.292,0,0,1,.932,1.215,7.432,7.432,0,0,1,.618,1.4,11.794,11.794,0,0,1,.368,1.5,14.126,14.126,0,0,1,.192,1.5c.032.451.048.921.048,1.4Zm0,0" transform="translate(-200.569 -235.885)" fill="#fff"/>
  </g>
</svg>
